# xmcd
#
# Track frame offsets:
#	150
#	15305
#	33392
#	51367
#	69515
#	88542
#	105135
#	122075
#	142087
#	154927
#	169097
#	187010
#	202587
#	217087
#	234187
#
# Disc length: 3350 seconds
#
# Revision: 1
# Processed by: cddbd v1.5.1PL0 Copyright (c) Steve Scherf et al.
# Submitted via: CDex 1.50Beta5
#
DISCID=c30d140f
DTITLE=Various Artist - オール・ニューミュージック・ヒット・コレクション60
DYEAR=1900
DGENRE=
TTITLE0=蓑谷雅彦/笑えないピエロ
TTITLE1=マリーン/マジック
TTITLE2=上田正樹/レゲエであの娘を寝かせたら
TTITLE3=伊武雅刀/子供達を責めないで
TTITLE4=村下孝蔵/踊り子
TTITLE5=森山良子/セフィニ〜愛の幕切れ〜
TTITLE6=村下孝蔵/初恋
TTITLE7=上田正樹/悲しい色やね
TTITLE8=杉真理/バカンスはいつも雨(レイン)
TTITLE9=五輪真弓/抱きしめて(愛は夢のように)
TTITLE10=桃井かおり/来生たかお/ねじれたハートで
TTITLE11=村下孝蔵/ゆうこ
TTITLE12=HOUND DOG/浮気な、パレット・キャット
TTITLE13=五輪真弓/リバイバル
TTITLE14=久保田早紀/オレンジ・エアメール・スペシャル
EXTD=
EXTT0=
EXTT1=
EXTT2=
EXTT3=
EXTT4=
EXTT5=
EXTT6=
EXTT7=
EXTT8=
EXTT9=
EXTT10=
EXTT11=
EXTT12=
EXTT13=
EXTT14=
PLAYORDER=
